# xmcd CD database file
#
# Track frame offsets:
#	150
#	19222
#	39325
#	57827
#	71205
#	89322
#	107920
#	120160
#	135660
#	153057
#	170057
#	186925
#	209015
#	238380
#	256717
#
# Disc length: 3680 seconds
#
# Revision: 2
# Processed by: cddbd v1.4PL0 Copyright (c) Steve Scherf et al.
# Submitted via: CDex 1.40Release
#
DISCID=d10e5e0f
DTITLE=Peter Himmelman - Synesthesia
DYEAR=1989
DGENRE=Rock
TTITLE0=Synesthesia
TTITLE1=245 Days
TTITLE2=Difficult To Touch
TTITLE3=Tug Of War
TTITLE4=A Million Sides
TTITLE5=Name
TTITLE6=Surrender
TTITLE7=Dirty Reasons
TTITLE8=Babylon
TTITLE9=The Sweetest Revenge
TTITLE10=I Wouldn't Mind
TTITLE11=Speaking Mouth
TTITLE12=Brother Joel
TTITLE13=Second Chance
TTITLE14=Beneath Your Watching Eyes
EXTD=YEAR: 1989 ID3G: 17
EXTT0=
EXTT1=
EXTT2=
EXTT3=
EXTT4=
EXTT5=
EXTT6=
EXTT7=
EXTT8=
EXTT9=
EXTT10=
EXTT11=
EXTT12=
EXTT13=
EXTT14=
PLAYORDER=
